# Made in Blockbench 4.12.6
mtllib stoneball.mtl

o cylinder
v 0.5 0 0.5625
v 0.5 0.125 0.5625
v 0.6339745962155614 0 1.0625
v 0.6339745962155614 0.125 1.0625
v 0.8660254037844386 0 0.9285254037844387
v 0.8660254037844386 0.125 0.9285254037844387
v 1 0 0.6964745962155614
v 1 0.125 0.6964745962155614
v 1 0 0.4285254037844386
v 1 0.125 0.4285254037844386
v 0.8660254037844387 0 0.19647459621556146
v 0.8660254037844387 0.125 0.19647459621556146
v 0.6339745962155614 0 0.06250000000000011
v 0.6339745962155614 0.125 0.06250000000000011
v 0.3660254037844388 0 0.0625
v 0.3660254037844388 0.125 0.0625
v 0.13397459621556146 0 0.1964745962155613
v 0.13397459621556146 0.125 0.1964745962155613
v 0 0 0.42852540378443876
v 0 0.125 0.42852540378443876
v 0 0 0.6964745962155612
v 0 0.125 0.6964745962155612
v 0.1339745962155613 0 0.9285254037844386
v 0.1339745962155613 0.125 0.9285254037844386
v 0.3660254037844387 0 1.0625
v 0.3660254037844387 0.125 1.0625
vt 0.16237968749999998 0.9748796875
vt 0.11887031249999999 1
vt 0.09375 0.90625
vt 0.5719953125 0.53125
vt 0.6222359375 0.53125
vt 0.6222359375 0.546875
vt 0.5719953125 0.546875
vt 0.2751203125 0.640625
vt 0.3186296875 0.6657453125
vt 0.25 0.734375
vt 0.1875 0.9313703125
vt 0.16237968749999998 0.9748796875
vt 0.09375 0.90625
vt 0.4558890625 0.703125
vt 0.5061296875 0.703125
vt 0.5061296875 0.71875
vt 0.4558890625 0.71875
vt 0.3186296875 0.6657453125
vt 0.34375 0.7092546875
vt 0.25 0.734375
vt 0.1875 0.8811296875
vt 0.1875 0.9313703125
vt 0.09375 0.90625
vt 0.5061296875 0.703125
vt 0.5563703125 0.703125
vt 0.5563703125 0.71875
vt 0.5061296875 0.71875
vt 0.34375 0.7092546875
vt 0.34375 0.7594953125
vt 0.25 0.734375
vt 0.16237968749999998 0.8376203125
vt 0.1875 0.8811296875
vt 0.09375 0.90625
vt 0.5563703125 0.703125
vt 0.6066109375 0.703125
vt 0.6066109375 0.71875
vt 0.5563703125 0.71875
vt 0.34375 0.7594953125
vt 0.3186296875 0.8030046875
vt 0.25 0.734375
vt 0.11887031249999999 0.8125
vt 0.16237968749999998 0.8376203125
vt 0.09375 0.90625
vt 0.4715140625 0.5
vt 0.5217546875 0.5
vt 0.5217546875 0.515625
vt 0.4715140625 0.515625
vt 0.3186296875 0.8030046875
vt 0.2751203125 0.828125
vt 0.25 0.734375
vt 0.06862968750000001 0.8125
vt 0.11887031249999999 0.8125
vt 0.09375 0.90625
vt 0.5217546875 0.5
vt 0.5719953125 0.5
vt 0.5719953125 0.515625
vt 0.5217546875 0.515625
vt 0.2751203125 0.828125
vt 0.2248796875 0.828125
vt 0.25 0.734375
vt 0.025120312500000005 0.8376203125
vt 0.06862968750000001 0.8125
vt 0.09375 0.90625
vt 0.5719953125 0.5
vt 0.6222359375 0.5
vt 0.6222359375 0.515625
vt 0.5719953125 0.515625
vt 0.2248796875 0.828125
vt 0.18137031250000002 0.8030046875
vt 0.25 0.734375
vt 0 0.8811296875
vt 0.025120312500000005 0.8376203125
vt 0.09375 0.90625
vt 0.4715140625 0.5625
vt 0.5217546875 0.5625
vt 0.5217546875 0.578125
vt 0.4715140625 0.578125
vt 0.18137031250000002 0.8030046875
vt 0.15625 0.7594953125
vt 0.25 0.734375
vt 0 0.9313703125
vt 0 0.8811296875
vt 0.09375 0.90625
vt 0.5217546875 0.5625
vt 0.5719953125 0.5625
vt 0.5719953125 0.578125
vt 0.5217546875 0.578125
vt 0.15625 0.7594953125
vt 0.15625 0.7092546875
vt 0.25 0.734375
vt 0.025120312500000005 0.9748796875
vt 0 0.9313703125
vt 0.09375 0.90625
vt 0.5719953125 0.5625
vt 0.6222359375 0.5625
vt 0.6222359375 0.578125
vt 0.5719953125 0.578125
vt 0.15625 0.7092546875
vt 0.18137031250000002 0.6657453125
vt 0.25 0.734375
vt 0.06862968750000001 1
vt 0.025120312500000005 0.9748796875
vt 0.09375 0.90625
vt 0.4715140625 0.53125
vt 0.5217546875 0.53125
vt 0.5217546875 0.546875
vt 0.4715140625 0.546875
vt 0.18137031250000002 0.6657453125
vt 0.2248796875 0.640625
vt 0.25 0.734375
vt 0.11887031249999999 1
vt 0.06862968750000001 1
vt 0.09375 0.90625
vt 0.5217546875 0.53125
vt 0.5719953125 0.53125
vt 0.5719953125 0.546875
vt 0.5217546875 0.546875
vt 0.2248796875 0.640625
vt 0.2751203125 0.640625
vt 0.25 0.734375
vn 0 -1 0
vn 0.5 0 0.8660254037844387
vn 0 1 0
vn 0 -1 0
vn 0.8660254037844386 0 0.5000000000000002
vn 0 1 0
vn 0 -1 0
vn 1 0 0
vn 0 1 0
vn 0 -1 0
vn 0.8660254037844388 0 -0.5000000000000001
vn 0 1 0
vn 0 -1 0
vn 0.5000000000000001 0 -0.8660254037844387
vn 0 1 0
vn 0 -1 0
vn 4.143408735633879e-16 0 -1
vn 0 1 0
vn 0 -1 0
vn -0.49999999999999967 0 -0.8660254037844388
vn 0 1 0
vn 0 -1 0
vn -0.8660254037844388 0 -0.5000000000000001
vn 0 1 0
vn 0 -1 0
vn -1 0 0
vn 0 1 0
vn 0 -1 0
vn -0.8660254037844388 0 0.4999999999999996
vn 0 1 0
vn 0 -1 0
vn -0.5000000000000001 0 0.8660254037844387
vn 0 1 0
vn 0 -1 0
vn 0 0 1
vn 0 1 0
usemtl m_1cab890b-6ffa-775c-24a6-570d5aec3036
f 5/1/1 3/2/1 1/3/1
f 3/4/2 5/5/2 6/6/2 4/7/2
f 4/8/3 6/9/3 2/10/3
f 7/11/4 5/12/4 1/13/4
f 5/14/5 7/15/5 8/16/5 6/17/5
f 6/18/6 8/19/6 2/20/6
f 9/21/7 7/22/7 1/23/7
f 7/24/8 9/25/8 10/26/8 8/27/8
f 8/28/9 10/29/9 2/30/9
f 11/31/10 9/32/10 1/33/10
f 9/34/11 11/35/11 12/36/11 10/37/11
f 10/38/12 12/39/12 2/40/12
f 13/41/13 11/42/13 1/43/13
f 11/44/14 13/45/14 14/46/14 12/47/14
f 12/48/15 14/49/15 2/50/15
f 15/51/16 13/52/16 1/53/16
f 13/54/17 15/55/17 16/56/17 14/57/17
f 14/58/18 16/59/18 2/60/18
f 17/61/19 15/62/19 1/63/19
f 15/64/20 17/65/20 18/66/20 16/67/20
f 16/68/21 18/69/21 2/70/21
f 19/71/22 17/72/22 1/73/22
f 17/74/23 19/75/23 20/76/23 18/77/23
f 18/78/24 20/79/24 2/80/24
f 21/81/25 19/82/25 1/83/25
f 19/84/26 21/85/26 22/86/26 20/87/26
f 20/88/27 22/89/27 2/90/27
f 23/91/28 21/92/28 1/93/28
f 21/94/29 23/95/29 24/96/29 22/97/29
f 22/98/30 24/99/30 2/100/30
f 25/101/31 23/102/31 1/103/31
f 23/104/32 25/105/32 26/106/32 24/107/32
f 24/108/33 26/109/33 2/110/33
f 3/111/34 25/112/34 1/113/34
f 25/114/35 3/115/35 4/116/35 26/117/35
f 26/118/36 4/119/36 2/120/36
o sphere
v 0.5 1.0625 0.5625
v 0.6074279406640921 0.9550720593359079 0.8988008425002827
v 0.6738220593359079 0.6738220593359079 1.1066461936106826
v 0.6738220593359079 0.3261779406640921 1.1066461936106826
v 0.6074279406640921 0.044927940664092114 0.8988008425002827
v 0.78125 0.9550720593359079 0.7703453511103999
v 0.9550720593359079 0.6738220593359079 0.8988008425002827
v 0.9550720593359079 0.3261779406640921 0.8988008425002827
v 0.78125 0.044927940664092114 0.7703453511103999
v 0.8476441186718158 0.9550720593359079 0.5625
v 1.0625 0.6738220593359079 0.5625
v 1.0625 0.3261779406640921 0.5625
v 0.8476441186718159 0.044927940664092114 0.5625
v 0.78125 0.9550720593359079 0.3546546488896002
v 0.9550720593359079 0.6738220593359079 0.22619915749971742
v 0.9550720593359079 0.3261779406640921 0.2261991574997173
v 0.78125 0.044927940664092114 0.3546546488896001
v 0.6074279406640921 0.9550720593359079 0.2261991574997173
v 0.6738220593359079 0.6738220593359079 0.018353806389317495
v 0.673822059335908 0.3261779406640921 0.018353806389317384
v 0.6074279406640921 0.044927940664092114 0.22619915749971725
v 0.39257205933590783 0.9550720593359079 0.2261991574997173
v 0.32617794066409195 0.6738220593359079 0.018353806389317495
v 0.3261779406640919 0.3261779406640921 0.018353806389317384
v 0.39257205933590783 0.044927940664092114 0.22619915749971725
v 0.21875000000000006 0.9550720593359079 0.3546546488896001
v 0.044927940664092225 0.6738220593359079 0.22619915749971725
v 0.044927940664092114 0.3261779406640921 0.22619915749971725
v 0.21875 0.044927940664092114 0.3546546488896
v 0.15235588132818417 0.9550720593359079 0.5624999999999999
v -0.06249999999999989 0.6738220593359079 0.5624999999999999
v -0.0625 0.3261779406640921 0.5624999999999999
v 0.15235588132818412 0.044927940664092114 0.5624999999999999
v 0.21874999999999994 0.9550720593359079 0.7703453511103998
v 0.04492794066409206 0.6738220593359079 0.8988008425002826
v 0.044927940664092 0.3261779406640921 0.8988008425002826
v 0.2187499999999999 0.044927940664092114 0.7703453511103998
v 0.39257205933590783 0.9550720593359079 0.8988008425002827
v 0.32617794066409195 0.6738220593359079 1.1066461936106826
v 0.32617794066409195 0.3261779406640921 1.1066461936106826
v 0.39257205933590783 0.044927940664092114 0.8988008425002827
vt 0 0.942059375
vt 0.035809375 0.942059375
vt 0.0179046875 1
vt 0.011065625000000003 1
vt 0 0.942059375
vt 0.057940625 0.942059375
vt 0.046875 1
vt 0 1
vt 0 0.942059375
vt 0.057940625 0.942059375
vt 0.057940625 1
vt 0 1
vt 0.011065625000000003 0.942059375
vt 0.046875 0.942059375
vt 0.057940625 1
vt 0 0.942059375
vt 0.035809375 0.942059375
vt 0.0179046875 1
vt 0.011065625000000003 1
vt 0 0.942059375
vt 0.057940625 0.942059375
vt 0.046875 1
vt 0 1
vt 0 0.942059375
vt 0.057940625 0.942059375
vt 0.057940625 1
vt 0 1
vt 0.011065625000000003 0.942059375
vt 0.046875 0.942059375
vt 0.057940625 1
vt 0 0.942059375
vt 0.035809375 0.942059375
vt 0.0179046875 1
vt 0.011065625000000003 1
vt 0 0.942059375
vt 0.057940625 0.942059375
vt 0.046875 1
vt 0 1
vt 0 0.942059375
vt 0.057940625 0.942059375
vt 0.057940625 1
vt 0 1
vt 0.011065625000000003 0.942059375
vt 0.046875 0.942059375
vt 0.057940625 1
vt 0 0.942059375
vt 0.035809375 0.942059375
vt 0.0179046875 1
vt 0.011065625000000003 1
vt 0 0.942059375
vt 0.057940625 0.942059375
vt 0.046875 1
vt 0 1
vt 0 0.942059375
vt 0.057940625 0.942059375
vt 0.057940625 1
vt 0 1
vt 0.011065625000000003 0.942059375
vt 0.046875 0.942059375
vt 0.057940625 1
vt 0 0.942059375
vt 0.035809375 0.942059375
vt 0.0179046875 1
vt 0.011065625000000003 1
vt 0 0.942059375
vt 0.057940625 0.942059375
vt 0.046875 1
vt 0 1
vt 0 0.942059375
vt 0.057940625 0.942059375
vt 0.057940625 1
vt 0 1
vt 0.011065625000000003 0.942059375
vt 0.046875 0.942059375
vt 0.057940625 1
vt 0 0.942059375
vt 0.035809375 0.942059375
vt 0.0179046875 1
vt 0.011065625000000003 1
vt 0 0.942059375
vt 0.057940625 0.942059375
vt 0.046875 1
vt 0 1
vt 0 0.942059375
vt 0.057940625 0.942059375
vt 0.057940625 1
vt 0 1
vt 0.011065625000000003 0.942059375
vt 0.046875 0.942059375
vt 0.057940625 1
vt 0 0.942059375
vt 0.035809375 0.942059375
vt 0.0179046875 1
vt 0.011065625000000003 1
vt 0 0.942059375
vt 0.057940625 0.942059375
vt 0.046875 1
vt 0 1
vt 0 0.942059375
vt 0.057940625 0.942059375
vt 0.057940625 1
vt 0 1
vt 0.011065625000000003 0.942059375
vt 0.046875 0.942059375
vt 0.057940625 1
vt 0 0.942059375
vt 0.035809375 0.942059375
vt 0.0179046875 1
vt 0.011065625000000003 1
vt 0 0.942059375
vt 0.057940625 0.942059375
vt 0.046875 1
vt 0 1
vt 0 0.942059375
vt 0.057940625 0.942059375
vt 0.057940625 1
vt 0 1
vt 0.011065625000000003 0.942059375
vt 0.046875 0.942059375
vt 0.057940625 1
vt 0 0.942059375
vt 0.035809375 0.942059375
vt 0.0179046875 1
vt 0.011065625000000003 1
vt 0 0.942059375
vt 0.057940625 0.942059375
vt 0.046875 1
vt 0 1
vt 0 0.942059375
vt 0.057940625 0.942059375
vt 0.057940625 1
vt 0 1
vt 0.011065625000000003 0.942059375
vt 0.046875 0.942059375
vt 0.057940625 1
vt 0 0.942059375
vt 0.035809375 0.942059375
vt 0.0179046875 1
vt 0.011065625000000003 1
vt 0 0.942059375
vt 0.057940625 0.942059375
vt 0.046875 1
vt 0 1
vt 0 0.942059375
vt 0.057940625 0.942059375
vt 0.057940625 1
vt 0 1
vt 0.011065625000000003 0.942059375
vt 0.046875 0.942059375
vt 0.057940625 1
vn 0.18182576848976092 0.9520520838735277 0.24604109312304204
vn 0.4789718162403388 0.5920417241795966 0.6481300765107894
vn 0.5943261819700305 2.568339446688136e-16 0.8042240915472046
vn 0.47897181624033885 -0.5920417241795967 0.6481300765107894
vn 0.2939374511550887 0.9512015730708913 0.09389537899125773
vn 0.7702263153837668 0.5884005468940057 0.24604109312304198
vn 0.9525788705678814 2.0069471549101074e-16 0.3042917930993532
vn 0.770226315383767 -0.5884005468940056 0.24604109312304193
vn 0.2939374511550887 0.9512015730708913 -0.09389537899125773
vn 0.770226315383767 0.5884005468940057 -0.24604109312304204
vn 0.9525788705678815 3.0421196219754383e-16 -0.3042917930993532
vn 0.7702263153837668 -0.5884005468940058 -0.24604109312304195
vn 0.18182576848976098 0.9520520838735277 -0.246041093123042
vn 0.4789718162403391 0.5920417241795966 -0.6481300765107892
vn 0.5943261819700307 3.5173481828082884e-16 -0.8042240915472042
vn 0.478971816240339 -0.5920417241795966 -0.6481300765107892
vn 0 0.9525788705678814 -0.3042917930993532
vn 0 0.5943261819700305 -0.8042240915472046
vn 0 3.1935619358866046e-16 -1
vn 0 -0.5943261819700305 -0.8042240915472044
vn -0.18182576848976095 0.9520520838735277 -0.24604109312304195
vn -0.4789718162403391 0.5920417241795966 -0.6481300765107892
vn -0.5943261819700307 3.5173481828082874e-16 -0.8042240915472041
vn -0.4789718162403389 -0.5920417241795968 -0.6481300765107891
vn -0.2939374511550887 0.9512015730708913 -0.09389537899125781
vn -0.7702263153837668 0.5884005468940057 -0.24604109312304226
vn -0.9525788705678813 3.042119621975438e-16 -0.3042917930993534
vn -0.7702263153837666 -0.5884005468940057 -0.24604109312304215
vn -0.2939374511550887 0.9512015730708913 0.09389537899125766
vn -0.7702263153837668 0.5884005468940056 0.24604109312304182
vn -0.9525788705678814 3.0421196219754383e-16 0.3042917930993531
vn -0.7702263153837668 -0.5884005468940057 0.2460410931230418
vn -0.18182576848976104 0.9520520838735277 0.246041093123042
vn -0.478971816240339 0.5920417241795966 0.6481300765107891
vn -0.594326181970031 9.490087361201532e-17 0.8042240915472043
vn -0.4789718162403392 -0.5920417241795966 0.6481300765107891
vn 0 0.9525788705678815 0.3042917930993532
vn 0 0.5943261819700305 0.8042240915472046
vn 0 3.193561935886604e-16 1
vn 0 -0.5943261819700305 0.8042240915472045
usemtl m_1cab890b-6ffa-775c-24a6-570d5aec3036
f 28/121/37 32/122/37 27/123/37
f 28/124/38 29/125/38 33/126/38 32/127/38
f 29/128/39 30/129/39 34/130/39 33/131/39
f 30/132/40 31/133/40 35/134/40 34/135/40
f 32/136/41 36/137/41 27/138/41
f 32/139/42 33/140/42 37/141/42 36/142/42
f 33/143/43 34/144/43 38/145/43 37/146/43
f 34/147/44 35/148/44 39/149/44 38/150/44
f 36/151/45 40/152/45 27/153/45
f 36/154/46 37/155/46 41/156/46 40/157/46
f 37/158/47 38/159/47 42/160/47 41/161/47
f 38/162/48 39/163/48 43/164/48 42/165/48
f 40/166/49 44/167/49 27/168/49
f 40/169/50 41/170/50 45/171/50 44/172/50
f 41/173/51 42/174/51 46/175/51 45/176/51
f 42/177/52 43/178/52 47/179/52 46/180/52
f 44/181/53 48/182/53 27/183/53
f 44/184/54 45/185/54 49/186/54 48/187/54
f 45/188/55 46/189/55 50/190/55 49/191/55
f 46/192/56 47/193/56 51/194/56 50/195/56
f 48/196/57 52/197/57 27/198/57
f 48/199/58 49/200/58 53/201/58 52/202/58
f 49/203/59 50/204/59 54/205/59 53/206/59
f 50/207/60 51/208/60 55/209/60 54/210/60
f 52/211/61 56/212/61 27/213/61
f 52/214/62 53/215/62 57/216/62 56/217/62
f 53/218/63 54/219/63 58/220/63 57/221/63
f 54/222/64 55/223/64 59/224/64 58/225/64
f 56/226/65 60/227/65 27/228/65
f 56/229/66 57/230/66 61/231/66 60/232/66
f 57/233/67 58/234/67 62/235/67 61/236/67
f 58/237/68 59/238/68 63/239/68 62/240/68
f 60/241/69 64/242/69 27/243/69
f 60/244/70 61/245/70 65/246/70 64/247/70
f 61/248/71 62/249/71 66/250/71 65/251/71
f 62/252/72 63/253/72 67/254/72 66/255/72
f 64/256/73 28/257/73 27/258/73
f 64/259/74 65/260/74 29/261/74 28/262/74
f 65/263/75 66/264/75 30/265/75 29/266/75
f 66/267/76 67/268/76 31/269/76 30/270/76